<?xml version="1.0" encoding="UTF-8" standalone="no"?>
<svg
   xmlns:dc="http://purl.org/dc/elements/1.1/"
   xmlns:cc="http://creativecommons.org/ns#"
   xmlns:rdf="http://www.w3.org/1999/02/22-rdf-syntax-ns#"
   xmlns:svg="http://www.w3.org/2000/svg"
   xmlns="http://www.w3.org/2000/svg"
   xmlns:sodipodi="http://sodipodi.sourceforge.net/DTD/sodipodi-0.dtd"
   xmlns:inkscape="http://www.inkscape.org/namespaces/inkscape"
   viewBox="0.0 0.0 348.0 348.0"
   fill="none"
   id="svg2"
   version="1.1"
   inkscape:version="0.91 r13725"
   sodipodi:docname="The Hangover.svg">
  <metadata
     id="metadata12">
    <rdf:RDF>
      <cc:Work
         rdf:about="">
        <dc:format>image/svg+xml</dc:format>
        <dc:type
           rdf:resource="http://purl.org/dc/dcmitype/StillImage" />
      </cc:Work>
    </rdf:RDF>
  </metadata>
  <defs
     id="defs10" />
  <sodipodi:namedview
     pagecolor="#ffffff"
     bordercolor="#666666"
     borderopacity="1"
     objecttolerance="10"
     gridtolerance="10"
     guidetolerance="10"
     inkscape:pageopacity="0"
     inkscape:pageshadow="2"
     inkscape:window-width="1440"
     inkscape:window-height="785"
     id="namedview8"
     showgrid="false"
     inkscape:zoom="0.67816092"
     inkscape:cx="-39.813559"
     inkscape:cy="174"
     inkscape:window-x="0"
     inkscape:window-y="1"
     inkscape:window-maximized="1"
     inkscape:current-layer="svg2" />
  <path
     d="M5.079 5.776h336.913v337.67H5.08z"
     stroke-width="2"
     stroke="#000"
     id="path4" />
  <path
     d="M282.734 40.554c0-8.376 6.966-15.165 15.56-15.165 4.126 0 8.084 1.597 11.001 4.441 2.918 2.844 4.558 6.702 4.558 10.724 0 8.376-6.966 15.165-15.56 15.165-8.593 0-15.559-6.79-15.559-15.165z"
     stroke-width="2"
     stroke="#000"
     id="path6" />
  <rect
     style="fill:none;fill-rule:evenodd;stroke:#000000;stroke-width:4;stroke-linecap:butt;stroke-linejoin:miter;stroke-opacity:1;fill-opacity:1;stroke-miterlimit:4;stroke-dasharray:none"
     id="rect4140"
     width="255.1017"
     height="66.355949"
     x="48.661018"
     y="268.37289" />
  <rect
     y="207.41228"
     x="80.174957"
     height="49.667057"
     width="190.94218"
     id="rect4142"
     style="fill:none;fill-opacity:1;fill-rule:evenodd;stroke:#000000;stroke-width:2.99397755;stroke-linecap:butt;stroke-linejoin:miter;stroke-miterlimit:4;stroke-dasharray:none;stroke-opacity:1" />
  <rect
     style="fill:none;fill-opacity:1;fill-rule:evenodd;stroke:#000000;stroke-width:2.07179022;stroke-linecap:butt;stroke-linejoin:miter;stroke-miterlimit:4;stroke-dasharray:none;stroke-opacity:1"
     id="rect4144"
     width="132.12932"
     height="34.368908"
     x="112.15454"
     y="161.23932" />
  <g
     style="font-style:normal;font-weight:normal;font-size:27.5px;line-height:125%;font-family:sans-serif;letter-spacing:0px;word-spacing:0px;fill:#000000;fill-opacity:1;stroke:none;stroke-width:1px;stroke-linecap:butt;stroke-linejoin:miter;stroke-opacity:1"
     id="text4146">
    <path
       d="m 58.225159,293.92123 0,7.19727 4.001465,0 q 1.557617,0 2.081298,-0.46997 0.698243,-0.61768 0.778809,-2.17529 l 0.496826,0 0,6.33789 -0.496826,0 q -0.187988,-1.32935 -0.375977,-1.70533 -0.241699,-0.46997 -0.792236,-0.73852 -0.550537,-0.26856 -1.691894,-0.26856 l -4.001465,0 0,6.0022 q 0,1.2085 0.107422,1.47705 0.107421,0.25513 0.375976,0.41626 0.268555,0.14771 1.020508,0.14771 l 3.088379,0 q 1.544189,0 2.242431,-0.21485 0.698243,-0.21484 1.342774,-0.84594 0.832519,-0.83252 1.705322,-2.51099 l 0.53711,0 -1.571045,4.56543 -14.031983,0 0,-0.49683 0.644531,0 q 0.644532,0 1.221924,-0.30883 0.429688,-0.21485 0.577393,-0.64454 0.161133,-0.42968 0.161133,-1.75903 l 0,-11.82983 q 0,-1.73218 -0.349121,-2.13501 -0.483399,-0.53711 -1.611329,-0.53711 l -0.644531,0 0,-0.49683 14.031983,0 0.201416,3.98804 -0.523682,0 q -0.281982,-1.43677 -0.631103,-1.97388 -0.335694,-0.53711 -1.007081,-0.81909 -0.537109,-0.20142 -1.89331,-0.20142 l -4.995117,0 z"
       style="font-style:normal;font-variant:normal;font-weight:normal;font-stretch:normal;font-size:27.5px;font-family:'Times New Roman';-inkscape-font-specification:'Times New Roman, ';text-align:center;text-anchor:middle"
       id="path4150" />
    <path
       d="m 73.734192,301.07822 q 2.161865,-2.60498 4.122314,-2.60498 1.00708,0 1.732178,0.51025 0.725098,0.49683 1.154785,1.65161 0.29541,0.80567 0.29541,2.4707 l 0,5.25025 q 0,1.16821 0.187989,1.58447 0.147705,0.33569 0.46997,0.52368 0.335694,0.18799 1.221924,0.18799 l 0,0.4834 -6.082763,0 0,-0.4834 0.255126,0 q 0.859375,0 1.195069,-0.25513 0.349121,-0.26855 0.483398,-0.7788 0.05371,-0.20142 0.05371,-1.26221 l 0,-5.0354 q 0,-1.67847 -0.443115,-2.43042 -0.429688,-0.76538 -1.463623,-0.76538 -1.5979,0 -3.182373,1.7456 l 0,6.4856 q 0,1.24878 0.147705,1.54419 0.187988,0.3894 0.510254,0.57739 0.335693,0.17456 1.342773,0.17456 l 0,0.4834 -6.082763,0 0,-0.4834 0.268554,0 q 0.939942,0 1.262207,-0.46997 0.335694,-0.4834 0.335694,-1.82617 l 0,-4.56543 q 0,-2.21558 -0.107422,-2.69898 -0.09399,-0.48339 -0.308838,-0.65795 -0.201416,-0.17457 -0.550537,-0.17457 -0.375977,0 -0.899658,0.20142 l -0.201416,-0.4834 3.706054,-1.5039 0.577393,0 0,2.60498 z"
       style="font-style:normal;font-variant:normal;font-weight:normal;font-stretch:normal;font-size:27.5px;font-family:'Times New Roman';-inkscape-font-specification:'Times New Roman, ';text-align:center;text-anchor:middle"
       id="path4152" />
    <path
       d="m 87.470764,294.79404 0,4.04174 2.873535,0 0,0.93995 -2.873535,0 0,7.97607 q 0,1.19507 0.335694,1.61133 0.349121,0.41626 0.88623,0.41626 0.443115,0 0.859375,-0.26856 0.41626,-0.28198 0.644531,-0.81909 l 0.523682,0 q -0.469971,1.31592 -1.329346,1.98731 -0.859375,0.65796 -1.772461,0.65796 -0.617676,0 -1.208496,-0.3357 -0.59082,-0.34912 -0.872803,-0.98022 -0.281982,-0.64453 -0.281982,-1.97388 l 0,-8.27148 -1.947021,0 0,-0.44312 q 0.738525,-0.29541 1.503906,-0.99365 0.778808,-0.71167 1.383056,-1.67847 0.308838,-0.51025 0.859375,-1.86645 l 0.41626,0 z"
       style="font-style:normal;font-variant:normal;font-weight:normal;font-stretch:normal;font-size:27.5px;font-family:'Times New Roman';-inkscape-font-specification:'Times New Roman, ';text-align:center;text-anchor:middle"
       id="path4154" />
    <path
       d="m 94.654602,292.04135 q 0.563965,0 0.953369,0.40283 0.402832,0.38941 0.402832,0.95337 0,0.56397 -0.402832,0.9668 -0.389404,0.40283 -0.953369,0.40283 -0.563965,0 -0.966797,-0.40283 -0.402832,-0.40283 -0.402832,-0.9668 0,-0.56396 0.389404,-0.95337 0.402832,-0.40283 0.980225,-0.40283 z m 1.114502,6.43189 0,9.88281 q 0,1.15478 0.161133,1.54419 0.17456,0.37597 0.496826,0.56396 0.335693,0.18799 1.208496,0.18799 l 0,0.4834 -5.975342,0 0,-0.4834 q 0.899658,0 1.208496,-0.17456 0.308838,-0.17456 0.483399,-0.57739 0.187988,-0.40283 0.187988,-1.54419 l 0,-4.73999 q 0,-2.00073 -0.12085,-2.59155 -0.09399,-0.42969 -0.29541,-0.59082 -0.201416,-0.17457 -0.550537,-0.17457 -0.375976,0 -0.913086,0.20142 l -0.187988,-0.4834 3.706055,-1.5039 0.59082,0 z"
       style="font-style:normal;font-variant:normal;font-weight:normal;font-stretch:normal;font-size:27.5px;font-family:'Times New Roman';-inkscape-font-specification:'Times New Roman, ';text-align:center;text-anchor:middle"
       id="path4156" />
    <path
       d="m 102.75153,298.47324 0,2.76611 q 1.54419,-2.76611 3.16894,-2.76611 0.73853,0 1.22193,0.45654 0.48339,0.44311 0.48339,1.03393 0,0.52369 -0.34912,0.88624 -0.34912,0.36254 -0.83252,0.36254 -0.46997,0 -1.06079,-0.45654 -0.57739,-0.46997 -0.85937,-0.46997 -0.2417,0 -0.52368,0.26855 -0.60425,0.55054 -1.24878,1.81275 l 0,5.89477 q 0,1.02051 0.25512,1.54419 0.17456,0.36255 0.61768,0.60425 0.44311,0.2417 1.27563,0.2417 l 0,0.4834 -6.297604,0 0,-0.4834 q 0.939941,0 1.396484,-0.29541 0.33569,-0.21484 0.46997,-0.68481 0.0671,-0.22827 0.0671,-1.30249 l 0,-4.76685 q 0,-2.14844 -0.094,-2.55127 -0.0806,-0.41626 -0.32227,-0.60425 -0.228272,-0.18799 -0.577393,-0.18799 -0.416259,0 -0.939941,0.20142 l -0.134277,-0.4834 3.719481,-1.5039 0.56397,0 z"
       style="font-style:normal;font-variant:normal;font-weight:normal;font-stretch:normal;font-size:27.5px;font-family:'Times New Roman';-inkscape-font-specification:'Times New Roman, ';text-align:center;text-anchor:middle"
       id="path4158" />
    <path
       d="m 110.40533,303.46835 q -0.0134,2.73926 1.32935,4.29688 1.34277,1.55762 3.15552,1.55762 1.20849,0 2.09472,-0.65796 0.89966,-0.67139 1.50391,-2.28272 l 0.41626,0.26856 q -0.28198,1.8396 -1.63818,3.35693 -1.3562,1.50391 -3.39722,1.50391 -2.21558,0 -3.80005,-1.71875 -1.57104,-1.73218 -1.57104,-4.646 0,-3.15552 1.61132,-4.91455 1.62476,-1.77246 4.06861,-1.77246 2.06787,0 3.39721,1.36963 1.32935,1.3562 1.32935,3.63891 l -8.49976,0 z m 0,-0.77881 5.69336,0 q -0.0671,-1.18164 -0.28198,-1.66503 -0.33569,-0.75196 -1.00708,-1.18165 -0.65796,-0.42968 -1.38306,-0.42968 -1.1145,0 -2.00073,0.8728 -0.8728,0.85938 -1.02051,2.40356 z"
       style="font-style:normal;font-variant:normal;font-weight:normal;font-stretch:normal;font-size:27.5px;font-family:'Times New Roman';-inkscape-font-specification:'Times New Roman, ';text-align:center;text-anchor:middle"
       id="path4160" />
    <path
       d="m 137.90533,306.46274 q -0.49682,2.43042 -1.94702,3.74634 -1.45019,1.30249 -3.20923,1.30249 -2.09472,0 -3.65234,-1.75904 -1.55762,-1.75903 -1.55762,-4.75342 0,-2.90039 1.71875,-4.71313 1.73218,-1.81274 4.14917,-1.81274 1.81275,0 2.98096,0.96679 1.16821,0.95337 1.16821,1.98731 0,0.51025 -0.33569,0.83252 -0.32227,0.30884 -0.91309,0.30884 -0.79223,0 -1.19506,-0.51026 -0.22828,-0.28198 -0.30884,-1.07422 -0.0671,-0.79223 -0.53711,-1.20849 -0.46997,-0.40284 -1.30249,-0.40284 -1.34278,0 -2.16187,0.99366 -1.08764,1.31591 -1.08764,3.47778 0,2.20215 1.07422,3.89404 1.08764,1.67847 2.92724,1.67847 1.31592,0 2.36328,-0.89966 0.73853,-0.61767 1.43677,-2.24243 l 0.3894,0.18799 z"
       style="font-style:normal;font-variant:normal;font-weight:normal;font-stretch:normal;font-size:27.5px;font-family:'Times New Roman';-inkscape-font-specification:'Times New Roman, ';text-align:center;text-anchor:middle"
       id="path4162" />
    <path
       d="m 146.61993,309.36313 q -1.89331,1.46362 -2.3767,1.69189 -0.7251,0.3357 -1.54419,0.3357 -1.27564,0 -2.10816,-0.87281 -0.81909,-0.8728 -0.81909,-2.29614 0,-0.89966 0.40283,-1.55762 0.55054,-0.91308 1.90674,-1.71875 1.36963,-0.80566 4.53857,-1.96045 l 0,-0.48339 q 0,-1.8396 -0.59082,-2.52442 -0.57739,-0.68481 -1.69189,-0.68481 -0.84595,0 -1.34277,0.45654 -0.51026,0.45654 -0.51026,1.04736 l 0.0269,0.77881 q 0,0.61768 -0.32227,0.95337 -0.30884,0.3357 -0.81909,0.3357 -0.49683,0 -0.81909,-0.34913 -0.30884,-0.34912 -0.30884,-0.95337 0,-1.15478 1.18164,-2.12158 1.18164,-0.96679 3.31665,-0.96679 1.63818,0 2.68555,0.55053 0.79223,0.41626 1.16821,1.30249 0.2417,0.5774 0.2417,2.36328 l 0,4.17603 q 0,1.75903 0.0671,2.16187 0.0671,0.3894 0.21484,0.52368 0.16114,0.13427 0.36255,0.13427 0.21485,0 0.37598,-0.094 0.28198,-0.17456 1.08764,-0.98022 l 0,0.75195 q -1.5039,2.01416 -2.87353,2.01416 -0.65796,0 -1.04736,-0.45654 -0.38941,-0.45655 -0.40284,-1.55762 z m 0,-0.8728 0,-4.68628 q -2.02758,0.80566 -2.6184,1.14135 -1.0608,0.59082 -1.51734,1.23536 -0.45654,0.64453 -0.45654,1.40991 0,0.96679 0.57739,1.61133 0.57739,0.6311 1.32935,0.6311 1.02051,0 2.68554,-1.34277 z"
       style="font-style:normal;font-variant:normal;font-weight:normal;font-stretch:normal;font-size:27.5px;font-family:'Times New Roman';-inkscape-font-specification:'Times New Roman, ';text-align:center;text-anchor:middle"
       id="path4164" />
    <path
       d="m 155.42853,301.07822 q 2.16186,-2.60498 4.12231,-2.60498 1.00708,0 1.73218,0.51025 0.7251,0.49683 1.15479,1.65161 0.29541,0.80567 0.29541,2.4707 l 0,5.25025 q 0,1.16821 0.18798,1.58447 0.14771,0.33569 0.46997,0.52368 0.3357,0.18799 1.22193,0.18799 l 0,0.4834 -6.08277,0 0,-0.4834 0.25513,0 q 0.85938,0 1.19507,-0.25513 0.34912,-0.26855 0.4834,-0.7788 0.0537,-0.20142 0.0537,-1.26221 l 0,-5.0354 q 0,-1.67847 -0.44312,-2.43042 -0.42968,-0.76538 -1.46362,-0.76538 -1.5979,0 -3.18237,1.7456 l 0,6.4856 q 0,1.24878 0.1477,1.54419 0.18799,0.3894 0.51026,0.57739 0.33569,0.17456 1.34277,0.17456 l 0,0.4834 -6.08276,0 0,-0.4834 0.26855,0 q 0.93994,0 1.26221,-0.46997 0.33569,-0.4834 0.33569,-1.82617 l 0,-4.56543 q 0,-2.21558 -0.10742,-2.69898 -0.094,-0.48339 -0.30884,-0.65795 -0.20141,-0.17457 -0.55054,-0.17457 -0.37597,0 -0.89965,0.20142 l -0.20142,-0.4834 3.70606,-1.5039 0.57739,0 0,2.60498 z"
       style="font-style:normal;font-variant:normal;font-weight:normal;font-stretch:normal;font-size:27.5px;font-family:'Times New Roman';-inkscape-font-specification:'Times New Roman, ';text-align:center;text-anchor:middle"
       id="path4166" />
    <path
       d="m 178.48395,298.47324 q 2.79297,0 4.48486,2.12158 1.43677,1.81274 1.43677,4.1626 0,1.65161 -0.79224,3.3435 -0.79223,1.6919 -2.18872,2.55127 -1.38306,0.85938 -3.08838,0.85938 -2.77954,0 -4.41772,-2.21558 -1.38306,-1.86646 -1.38306,-4.18945 0,-1.6919 0.83252,-3.35694 0.84595,-1.67846 2.21558,-2.4707 1.36963,-0.80566 2.90039,-0.80566 z m -0.41626,0.8728 q -0.71167,0 -1.43677,0.42969 -0.71167,0.41626 -1.15478,1.47705 -0.44312,1.06079 -0.44312,2.72583 0,2.68554 1.06079,4.63257 1.07422,1.94702 2.81983,1.94702 1.30249,0 2.14843,-1.07422 0.84595,-1.07422 0.84595,-3.69263 0,-3.27637 -1.40991,-5.15625 -0.95337,-1.28906 -2.43042,-1.28906 z"
       style="font-style:normal;font-variant:normal;font-weight:normal;font-stretch:normal;font-size:27.5px;font-family:'Times New Roman';-inkscape-font-specification:'Times New Roman, ';text-align:center;text-anchor:middle"
       id="path4168" />
    <path
       d="m 191.02545,299.80258 0,8.0835 q 0,1.71875 0.37598,2.17529 0.49682,0.59082 1.32934,0.59082 l 1.11451,0 0,0.4834 -7.34497,0 0,-0.4834 0.55053,0 q 0.53711,0 0.98023,-0.26855 0.44311,-0.26856 0.60424,-0.7251 0.17457,-0.45654 0.17457,-1.77246 l 0,-8.0835 -2.39014,0 0,-0.9668 2.39014,0 0,-0.80566 q 0,-1.8396 0.59082,-3.11523 0.59082,-1.27564 1.79931,-2.05445 1.22193,-0.79223 2.73926,-0.79223 1.40991,0 2.59155,0.91308 0.77881,0.60425 0.77881,1.3562 0,0.40284 -0.34912,0.76538 -0.34912,0.34913 -0.75195,0.34913 -0.30884,0 -0.65796,-0.21485 -0.3357,-0.22827 -0.83252,-0.95337 -0.49683,-0.73852 -0.91309,-0.99365 -0.41626,-0.25513 -0.92651,-0.25513 -0.61768,0 -1.04736,0.3357 -0.42969,0.32226 -0.61768,1.0205 -0.18799,0.68482 -0.18799,3.55835 l 0,0.88623 3.16895,0 0,0.9668 -3.16895,0 z"
       style="font-style:normal;font-variant:normal;font-weight:normal;font-stretch:normal;font-size:27.5px;font-family:'Times New Roman';-inkscape-font-specification:'Times New Roman, ';text-align:center;text-anchor:middle"
       id="path4170" />
    <path
       d="m 220.0025,311.13559 -4.86084,0 -6.16333,-8.51318 q -0.68481,0.0269 -1.1145,0.0269 -0.17456,0 -0.37598,0 -0.20141,-0.0134 -0.41626,-0.0269 l 0,5.29052 q 0,1.71875 0.37598,2.13501 0.51025,0.59082 1.53076,0.59082 l 0.71167,0 0,0.49683 -7.80151,0 0,-0.49683 0.68481,0 q 1.15479,0 1.65161,-0.75195 0.28199,-0.41626 0.28199,-1.97388 l 0,-11.76269 q 0,-1.71875 -0.37598,-2.13501 -0.52368,-0.59082 -1.55762,-0.59082 l -0.68481,0 0,-0.49683 6.6333,0 q 2.90039,0 4.27002,0.42969 1.38306,0.41626 2.33642,1.55762 0.9668,1.12793 0.9668,2.69897 0,1.67847 -1.10107,2.91382 -1.08765,1.23535 -3.38379,1.7456 l 3.75976,5.22339 q 1.28907,1.79932 2.21558,2.39014 0.92651,0.59082 2.41699,0.75195 l 0,0.49683 z m -12.93091,-9.35913 q 0.25513,0 0.44312,0.0134 0.18799,0 0.30884,0 2.60498,0 3.9209,-1.12793 1.32934,-1.12793 1.32934,-2.87354 0,-1.70532 -1.07422,-2.76611 -1.06079,-1.07422 -2.81982,-1.07422 -0.77881,0 -2.10816,0.25513 l 0,7.57324 z"
       style="font-style:normal;font-variant:normal;font-weight:normal;font-stretch:normal;font-size:27.5px;font-family:'Times New Roman';-inkscape-font-specification:'Times New Roman, ';text-align:center;text-anchor:middle"
       id="path4172" />
    <path
       d="m 222.7149,303.46835 q -0.0134,2.73926 1.32935,4.29688 1.34277,1.55762 3.15552,1.55762 1.20849,0 2.09472,-0.65796 0.89966,-0.67139 1.50391,-2.28272 l 0.41626,0.26856 q -0.28198,1.8396 -1.63818,3.35693 -1.3562,1.50391 -3.39722,1.50391 -2.21558,0 -3.80005,-1.71875 -1.57104,-1.73218 -1.57104,-4.646 0,-3.15552 1.61132,-4.91455 1.62476,-1.77246 4.06861,-1.77246 2.06787,0 3.39721,1.36963 1.32935,1.3562 1.32935,3.63891 l -8.49976,0 z m 0,-0.77881 5.69336,0 q -0.0671,-1.18164 -0.28198,-1.66503 -0.33569,-0.75196 -1.00708,-1.18165 -0.65796,-0.42968 -1.38305,-0.42968 -1.11451,0 -2.00074,0.8728 -0.8728,0.85938 -1.02051,2.40356 z"
       style="font-style:normal;font-variant:normal;font-weight:normal;font-stretch:normal;font-size:27.5px;font-family:'Times New Roman';-inkscape-font-specification:'Times New Roman, ';text-align:center;text-anchor:middle"
       id="path4174" />
    <path
       d="m 241.58087,309.75253 q -0.89966,0.93994 -1.75903,1.3562 -0.85938,0.40284 -1.85303,0.40284 -2.01416,0 -3.51807,-1.67847 -1.5039,-1.6919 -1.5039,-4.33716 0,-2.64526 1.66504,-4.83398 1.66504,-2.20215 4.28344,-2.20215 1.62476,0 2.68555,1.03393 l 0,-2.26928 q 0,-2.10816 -0.10742,-2.59156 -0.094,-0.48339 -0.30884,-0.65795 -0.21484,-0.17457 -0.53711,-0.17457 -0.34912,0 -0.92651,0.21485 l -0.17456,-0.46997 3.66577,-1.50391 0.60425,0 0,14.21997 q 0,2.16187 0.094,2.64527 0.10742,0.46997 0.32227,0.65795 0.22827,0.18799 0.52368,0.18799 0.36255,0 0.9668,-0.22827 l 0.1477,0.46997 -3.65234,1.51734 -0.61768,0 0,-1.75904 z m 0,-0.93994 0,-6.33789 q -0.0806,-0.91309 -0.4834,-1.66504 -0.40283,-0.75195 -1.07422,-1.12793 -0.65795,-0.3894 -1.28906,-0.3894 -1.18164,0 -2.10815,1.06079 -1.22193,1.39648 -1.22193,4.08203 0,2.7124 1.18164,4.1626 1.18165,1.43677 2.63184,1.43677 1.22192,0 2.36328,-1.22193 z"
       style="font-style:normal;font-variant:normal;font-weight:normal;font-stretch:normal;font-size:27.5px;font-family:'Times New Roman';-inkscape-font-specification:'Times New Roman, ';text-align:center;text-anchor:middle"
       id="path4176" />
    <path
       d="m 265.36139,301.8436 q 1.89331,0.40283 2.83325,1.28906 1.30249,1.23535 1.30249,3.02124 0,1.3562 -0.85937,2.60498 -0.85938,1.23535 -2.36328,1.81274 -1.49048,0.56397 -4.56543,0.56397 l -8.59375,0 0,-0.49683 0.68481,0 q 1.14136,0 1.63818,-0.72509 0.30884,-0.46997 0.30884,-2.00074 l 0,-11.76269 q 0,-1.6919 -0.3894,-2.13501 -0.52368,-0.59082 -1.55762,-0.59082 l -0.68481,0 0,-0.49683 7.86865,0 q 2.20215,0 3.53149,0.32227 2.01416,0.4834 3.07495,1.71875 1.06079,1.22192 1.06079,2.81982 0,1.36963 -0.83252,2.45728 -0.83251,1.07422 -2.45727,1.5979 z m -7.03613,-0.7251 q 0.49682,0.094 1.12793,0.1477 0.64453,0.0403 1.40991,0.0403 1.96045,0 2.94067,-0.41626 0.99365,-0.42969 1.51734,-1.30249 0.52368,-0.8728 0.52368,-1.90674 0,-1.5979 -1.30249,-2.72583 -1.30249,-1.12793 -3.80005,-1.12793 -1.34277,0 -2.41699,0.29541 l 0,6.99585 z m 0,8.70117 q 1.55761,0.36255 3.07495,0.36255 2.43042,0 3.70605,-1.08765 1.27564,-1.10107 1.27564,-2.7124 0,-1.06079 -0.5774,-2.04101 -0.57739,-0.98023 -1.87988,-1.54419 -1.30249,-0.56397 -3.22265,-0.56397 -0.83252,0 -1.42334,0.0269 -0.59082,0.0269 -0.95337,0.094 l 0,7.46582 z"
       style="font-style:normal;font-variant:normal;font-weight:normal;font-stretch:normal;font-size:27.5px;font-family:'Times New Roman';-inkscape-font-specification:'Times New Roman, ';text-align:center;text-anchor:middle"
       id="path4178" />
    <path
       d="m 282.61603,298.83578 0,7.4524 q 0,2.13501 0.094,2.61841 0.10742,0.46997 0.32227,0.65795 0.22827,0.18799 0.52368,0.18799 0.41626,0 0.93994,-0.22827 l 0.18799,0.46997 -3.6792,1.51734 -0.60425,0 0,-2.60498 q -1.58447,1.71875 -2.41699,2.16186 -0.83252,0.44312 -1.75903,0.44312 -1.03394,0 -1.79932,-0.59082 -0.75195,-0.60425 -1.04736,-1.54419 -0.29541,-0.93995 -0.29541,-2.6587 l 0,-5.49194 q 0,-0.8728 -0.18799,-1.20849 -0.18799,-0.3357 -0.56397,-0.51026 -0.36255,-0.18799 -1.32934,-0.17456 l 0,-0.49683 4.3103,0 0,8.23121 q 0,1.71875 0.59082,2.25586 0.60425,0.5371 1.4502,0.5371 0.57739,0 1.30249,-0.36254 0.73852,-0.36255 1.7456,-1.38306 l 0,-6.96899 q 0,-1.04737 -0.3894,-1.40992 -0.37598,-0.37597 -1.58448,-0.40283 l 0,-0.49683 4.18946,0 z"
       style="font-style:normal;font-variant:normal;font-weight:normal;font-stretch:normal;font-size:27.5px;font-family:'Times New Roman';-inkscape-font-specification:'Times New Roman, ';text-align:center;text-anchor:middle"
       id="path4180" />
    <path
       d="m 289.75958,292.04135 0,16.3147 q 0,1.15478 0.16114,1.53076 0.17456,0.37598 0.52368,0.57739 0.34912,0.18799 1.30249,0.18799 l 0,0.4834 -6.02906,0 0,-0.4834 q 0.84595,0 1.15479,-0.17456 0.30884,-0.17456 0.4834,-0.57739 0.17456,-0.40283 0.17456,-1.54419 l 0,-11.17188 q 0,-2.0813 -0.094,-2.55127 -0.094,-0.48339 -0.30883,-0.65795 -0.20142,-0.17457 -0.52369,-0.17457 -0.34912,0 -0.88623,0.21485 l -0.22827,-0.46997 3.66577,-1.50391 0.60425,0 z"
       style="font-style:normal;font-variant:normal;font-weight:normal;font-stretch:normal;font-size:27.5px;font-family:'Times New Roman';-inkscape-font-specification:'Times New Roman, ';text-align:center;text-anchor:middle"
       id="path4182" />
    <path
       d="m 297.38654,292.04135 0,16.3147 q 0,1.15478 0.16113,1.53076 0.17456,0.37598 0.52368,0.57739 0.34912,0.18799 1.30249,0.18799 l 0,0.4834 -6.02905,0 0,-0.4834 q 0.84594,0 1.15478,-0.17456 0.30884,-0.17456 0.4834,-0.57739 0.17456,-0.40283 0.17456,-1.54419 l 0,-11.17188 q 0,-2.0813 -0.094,-2.55127 -0.094,-0.48339 -0.30884,-0.65795 -0.20142,-0.17457 -0.52368,-0.17457 -0.34912,0 -0.88623,0.21485 l -0.22827,-0.46997 3.66577,-1.50391 0.60425,0 z"
       style="font-style:normal;font-variant:normal;font-weight:normal;font-stretch:normal;font-size:27.5px;font-family:'Times New Roman';-inkscape-font-specification:'Times New Roman, ';text-align:center;text-anchor:middle"
       id="path4184" />
  </g>
  <g
     style="font-style:normal;font-weight:normal;font-size:27.5px;line-height:125%;font-family:sans-serif;letter-spacing:0px;word-spacing:0px;fill:#000000;fill-opacity:1;stroke:none;stroke-width:1px;stroke-linecap:butt;stroke-linejoin:miter;stroke-opacity:1"
     id="text4139">
    <path
       d="m 142.94073,223.20624 0,6.29761 -0.49682,0 q -0.2417,-1.81275 -0.8728,-2.88697 -0.61768,-1.07422 -1.77246,-1.70532 -1.15479,-0.6311 -2.39014,-0.6311 -1.39649,0 -2.30957,0.85937 -0.91309,0.84595 -0.91309,1.9336 0,0.83251 0.57739,1.51733 0.83252,1.00708 3.96119,2.68555 2.55127,1.36963 3.47778,2.10815 0.93994,0.7251 1.43677,1.71875 0.51025,0.99365 0.51025,2.0813 0,2.06787 -1.61133,3.57178 -1.5979,1.49048 -4.12231,1.49048 -0.79224,0 -1.49048,-0.12085 -0.41626,-0.0671 -1.73218,-0.4834 -1.30249,-0.42969 -1.65161,-0.42969 -0.33569,0 -0.53711,0.20142 -0.18799,0.20141 -0.28198,0.83252 l -0.49683,0 0,-6.2439 0.49683,0 q 0.34912,1.96045 0.93994,2.94067 0.59082,0.9668 1.79932,1.61133 1.22192,0.64453 2.67212,0.64453 1.67846,0 2.64526,-0.88623 0.98022,-0.88623 0.98022,-2.09473 0,-0.67138 -0.37597,-1.3562 -0.36255,-0.68481 -1.14136,-1.27563 -0.52368,-0.40283 -2.86011,-1.70532 -2.33642,-1.31592 -3.33008,-2.09473 -0.98022,-0.77881 -1.49047,-1.71875 -0.51026,-0.93994 -0.51026,-2.06787 0,-1.96045 1.50391,-3.37036 1.5039,-1.42334 3.8269,-1.42334 1.4502,0 3.07495,0.71167 0.75196,0.33569 1.0608,0.33569 0.34912,0 0.56396,-0.20141 0.22827,-0.21485 0.36255,-0.84595 l 0.49682,0 z"
       style="font-style:normal;font-variant:normal;font-weight:normal;font-stretch:normal;font-size:27.5px;font-family:'Times New Roman';-inkscape-font-specification:'Times New Roman, ';text-align:center;text-anchor:middle"
       id="path4187" />
    <path
       d="m 151.29279,232.06854 8.45947,0 0,-5.20996 q 0,-1.39648 -0.17456,-1.8396 -0.13428,-0.33569 -0.56397,-0.57739 -0.57739,-0.32227 -1.22192,-0.32227 l -0.64453,0 0,-0.49682 7.78808,0 0,0.49682 -0.64453,0 q -0.64453,0 -1.22192,0.30884 -0.42969,0.21485 -0.59082,0.65796 -0.14771,0.42969 -0.14771,1.77246 l 0,11.74927 q 0,1.38306 0.17456,1.82617 0.13428,0.33569 0.55054,0.57739 0.59082,0.32227 1.23535,0.32227 l 0.64453,0 0,0.49683 -7.78808,0 0,-0.49683 0.64453,0 q 1.1145,0 1.62475,-0.65796 0.3357,-0.42969 0.3357,-2.06787 l 0,-5.54566 -8.45947,0 0,5.54566 q 0,1.38306 0.17456,1.82617 0.13427,0.33569 0.56396,0.57739 0.57739,0.32227 1.22192,0.32227 l 0.65796,0 0,0.49683 -7.80151,0 0,-0.49683 0.64453,0 q 1.12793,0 1.63819,-0.65796 0.32226,-0.42969 0.32226,-2.06787 l 0,-11.74927 q 0,-1.39648 -0.17456,-1.8396 -0.13428,-0.33569 -0.55054,-0.57739 -0.59082,-0.32227 -1.23535,-0.32227 l -0.64453,0 0,-0.49682 7.80151,0 0,0.49682 -0.65796,0 q -0.64453,0 -1.22192,0.30884 -0.41626,0.21485 -0.57739,0.65796 -0.16113,0.42969 -0.16113,1.77246 l 0,5.20996 z"
       style="font-style:normal;font-variant:normal;font-weight:normal;font-stretch:normal;font-size:27.5px;font-family:'Times New Roman';-inkscape-font-specification:'Times New Roman, ';text-align:center;text-anchor:middle"
       id="path4189" />
    <path
       d="m 178.14825,235.73431 -7.04956,0 -1.23535,2.87354 q -0.45654,1.06079 -0.45654,1.58447 0,0.41626 0.3894,0.73853 0.40284,0.30884 1.71875,0.40283 l 0,0.49683 -5.73364,0 0,-0.49683 q 1.14136,-0.20142 1.47705,-0.52368 0.68482,-0.64453 1.51734,-2.61841 l 6.40503,-14.98535 0.46997,0 6.33789,15.14648 q 0.76538,1.82617 1.38305,2.37671 0.63111,0.53711 1.74561,0.60425 l 0,0.49683 -7.18384,0 0,-0.49683 q 1.08765,-0.0537 1.46362,-0.36255 0.38941,-0.30884 0.38941,-0.75195 0,-0.59082 -0.53711,-1.86646 l -1.10108,-2.61841 z m -0.37597,-0.99365 -3.08838,-7.3584 -3.16895,7.3584 6.25733,0 z"
       style="font-style:normal;font-variant:normal;font-weight:normal;font-stretch:normal;font-size:27.5px;font-family:'Times New Roman';-inkscape-font-specification:'Times New Roman, ';text-align:center;text-anchor:middle"
       id="path4191" />
    <path
       d="m 193.65729,231.73285 6.71386,6.67358 q 1.65162,1.65161 2.81983,2.25586 1.16821,0.59082 2.33642,0.67139 l 0,0.49683 -8.66088,0 0,-0.49683 q 0.7788,0 1.1145,-0.25513 0.34912,-0.26855 0.34912,-0.59082 0,-0.32226 -0.13428,-0.57739 -0.12085,-0.25513 -0.83252,-0.95337 l -6.28418,-6.21704 0,5.86792 q 0,1.38306 0.17456,1.82617 0.13428,0.33569 0.56397,0.57739 0.57739,0.32227 1.22192,0.32227 l 0.61768,0 0,0.49683 -7.76123,0 0,-0.49683 0.64453,0 q 1.12793,0 1.63818,-0.65796 0.32227,-0.42969 0.32227,-2.06787 l 0,-11.7627 q 0,-1.38305 -0.17456,-1.8396 -0.13428,-0.32226 -0.55054,-0.56396 -0.59082,-0.32227 -1.23535,-0.32227 l -0.64453,0 0,-0.49682 7.76123,0 0,0.49682 -0.61768,0 q -0.6311,0 -1.22192,0.30884 -0.41626,0.21485 -0.57739,0.64453 -0.16114,0.42969 -0.16114,1.77246 l 0,5.57251 q 0.26856,-0.25512 1.8396,-1.70532 3.98804,-3.65234 4.82056,-4.87427 0.36255,-0.53711 0.36255,-0.93994 0,-0.30884 -0.28198,-0.53711 -0.28199,-0.2417 -0.95337,-0.2417 l -0.41626,0 0,-0.49682 6.68701,0 0,0.49682 q -0.59082,0.0134 -1.07422,0.16114 -0.4834,0.1477 -1.18164,0.57739 -0.69824,0.41626 -1.71875,1.3562 -0.29541,0.26855 -2.72583,2.75269 l -2.77954,2.76611 z"
       style="font-style:normal;font-variant:normal;font-weight:normal;font-stretch:normal;font-size:27.5px;font-family:'Times New Roman';-inkscape-font-specification:'Times New Roman, ';text-align:center;text-anchor:middle"
       id="path4193" />
    <path
       d="m 211.00592,224.61615 0,7.19727 4.00147,0 q 1.55761,0 2.08129,-0.46998 0.69825,-0.61767 0.77881,-2.17529 l 0.49683,0 0,6.33789 -0.49683,0 q -0.18799,-1.32934 -0.37597,-1.70532 -0.2417,-0.46997 -0.79224,-0.73853 -0.55054,-0.26855 -1.69189,-0.26855 l -4.00147,0 0,6.0022 q 0,1.20849 0.10742,1.47705 0.10742,0.25513 0.37598,0.41626 0.26855,0.1477 1.02051,0.1477 l 3.08838,0 q 1.54419,0 2.24243,-0.21484 0.69824,-0.21484 1.34277,-0.84595 0.83252,-0.83252 1.70532,-2.51098 l 0.53711,0 -1.57104,4.56543 -14.03199,0 0,-0.49683 0.64454,0 q 0.64453,0 1.22192,-0.30884 0.42969,-0.21484 0.57739,-0.64453 0.16114,-0.42969 0.16114,-1.75903 l 0,-11.82984 q 0,-1.73217 -0.34913,-2.13501 -0.48339,-0.53711 -1.61132,-0.53711 l -0.64454,0 0,-0.49682 14.03199,0 0.20141,3.98803 -0.52368,0 q -0.28198,-1.43676 -0.6311,-1.97387 -0.3357,-0.53711 -1.00708,-0.81909 -0.53711,-0.20142 -1.89331,-0.20142 l -4.99512,0 z"
       style="font-style:normal;font-variant:normal;font-weight:normal;font-stretch:normal;font-size:27.5px;font-family:'Times New Roman';-inkscape-font-specification:'Times New Roman, ';text-align:center;text-anchor:middle"
       id="path4195" />
  </g>
  <g
     style="font-style:normal;font-weight:normal;font-size:27.5px;line-height:125%;font-family:sans-serif;letter-spacing:0px;word-spacing:0px;fill:#000000;fill-opacity:1;stroke:none;stroke-width:1px;stroke-linecap:butt;stroke-linejoin:miter;stroke-opacity:1"
     id="text4143">
    <path
       d="m 171.4881,164.16718 0,0.24841 q -0.4834,0.0873 -0.73181,0.30884 -0.35584,0.32898 -0.63111,1.00708 l -3.17566,7.7478 -0.24841,0 -3.41064,-7.84851 q -0.26184,-0.60425 -0.36927,-0.73853 -0.16784,-0.20813 -0.41626,-0.32226 -0.2417,-0.12085 -0.65796,-0.15442 l 0,-0.24841 3.71949,0 0,0.24841 q -0.63111,0.0604 -0.81909,0.21484 -0.18799,0.15442 -0.18799,0.39612 0,0.33569 0.30884,1.04736 l 2.31628,5.33753 2.14844,-5.27039 q 0.31555,-0.77881 0.31555,-1.08093 0,-0.1947 -0.1947,-0.36926 -0.19471,-0.18128 -0.65796,-0.25513 -0.0336,-0.007 -0.11414,-0.0201 l 0,-0.24841 2.8064,0 z"
       style="font-style:normal;font-variant:normal;font-weight:normal;font-stretch:normal;font-size:13.75px;font-family:'Times New Roman';-inkscape-font-specification:'Times New Roman, ';text-align:center;text-anchor:middle"
       id="path4198" />
    <path
       d="m 172.7973,163.72406 q 0.28198,0 0.47669,0.20142 0.20141,0.1947 0.20141,0.47668 0,0.28198 -0.20141,0.4834 -0.19471,0.20142 -0.47669,0.20142 -0.28198,0 -0.4834,-0.20142 -0.20141,-0.20142 -0.20141,-0.4834 0,-0.28198 0.1947,-0.47668 0.20142,-0.20142 0.49011,-0.20142 z m 0.55725,3.21594 0,4.94141 q 0,0.57739 0.0806,0.77209 0.0873,0.18799 0.24841,0.28199 0.16785,0.094 0.60425,0.094 l 0,0.2417 -2.98767,0 0,-0.2417 q 0.44983,0 0.60425,-0.0873 0.15442,-0.0873 0.2417,-0.2887 0.094,-0.20141 0.094,-0.77209 l 0,-2.37 q 0,-1.00036 -0.0604,-1.29577 -0.047,-0.21485 -0.14771,-0.29541 -0.10071,-0.0873 -0.27527,-0.0873 -0.18799,0 -0.45654,0.1007 l -0.094,-0.24169 1.85302,-0.75196 0.29541,0 z"
       style="font-style:normal;font-variant:normal;font-weight:normal;font-stretch:normal;font-size:13.75px;font-family:'Times New Roman';-inkscape-font-specification:'Times New Roman, ';text-align:center;text-anchor:middle"
       id="path4200" />
    <path
       d="m 176.08038,169.43756 q -0.007,1.36963 0.66468,2.14844 0.67138,0.77881 1.57775,0.77881 0.60425,0 1.04737,-0.32898 0.44983,-0.3357 0.75195,-1.14136 l 0.20813,0.13428 q -0.14099,0.9198 -0.81909,1.67846 -0.6781,0.75196 -1.69861,0.75196 -1.10779,0 -1.90002,-0.85938 -0.78553,-0.86609 -0.78553,-2.323 0,-1.57775 0.80567,-2.45727 0.81238,-0.88623 2.0343,-0.88623 1.03394,0 1.69861,0.68481 0.66467,0.6781 0.66467,1.81946 l -4.24988,0 z m 0,-0.3894 2.84668,0 q -0.0336,-0.59082 -0.14099,-0.83252 -0.16784,-0.37598 -0.50354,-0.59082 -0.32898,-0.21485 -0.69153,-0.21485 -0.55725,0 -1.00036,0.4364 -0.4364,0.42969 -0.51026,1.20179 z"
       style="font-style:normal;font-variant:normal;font-weight:normal;font-stretch:normal;font-size:13.75px;font-family:'Times New Roman';-inkscape-font-specification:'Times New Roman, ';text-align:center;text-anchor:middle"
       id="path4202" />
    <path
       d="m 180.82709,167.12128 2.57812,0 0,0.24841 q -0.35583,0.0269 -0.46997,0.12756 -0.10742,0.10071 -0.10742,0.2887 0,0.20813 0.11414,0.50354 l 1.31591,3.53821 1.32264,-2.88025 -0.34913,-0.90637 q -0.16113,-0.40284 -0.42297,-0.55725 -0.1477,-0.094 -0.55054,-0.11414 l 0,-0.24841 2.92725,0 0,0.24841 q -0.4834,0.0201 -0.68481,0.17456 -0.13428,0.10742 -0.13428,0.34241 0,0.13428 0.0537,0.27527 l 1.39648,3.53149 1.29578,-3.40393 q 0.13428,-0.36255 0.13428,-0.57739 0,-0.12757 -0.13428,-0.22827 -0.12756,-0.10071 -0.51025,-0.11414 l 0,-0.24841 1.9403,0 0,0.24841 q -0.5841,0.0873 -0.85937,0.79224 l -2.05445,5.29724 -0.27526,0 -1.53748,-3.92761 -1.7926,3.92761 -0.24841,0 -1.97388,-5.16968 q -0.1947,-0.49011 -0.38269,-0.65796 -0.18799,-0.17456 -0.59082,-0.26184 l 0,-0.24841 z"
       style="font-style:normal;font-variant:normal;font-weight:normal;font-stretch:normal;font-size:13.75px;font-family:'Times New Roman';-inkscape-font-specification:'Times New Roman, ';text-align:center;text-anchor:middle"
       id="path4204" />
    <path
       d="m 141.09442,181.35468 2.4707,0 5.5658,6.828 0,-5.25025 q 0,-0.83923 -0.18799,-1.04736 -0.24841,-0.28198 -0.78552,-0.28198 l -0.31555,0 0,-0.24841 3.16894,0 0,0.24841 -0.32226,0 q -0.57739,0 -0.81909,0.34912 -0.14771,0.21484 -0.14771,0.98022 l 0,7.67395 -0.2417,0 -6.0022,-7.33154 0,5.60608 q 0,0.83923 0.18128,1.04736 0.25513,0.28199 0.78552,0.28199 l 0.32227,0 0,0.24841 -3.16895,0 0,-0.24841 0.31555,0 q 0.58411,0 0.82581,-0.34912 0.1477,-0.21485 0.1477,-0.98023 l 0,-6.33118 q -0.39611,-0.46325 -0.60424,-0.61096 -0.20142,-0.1477 -0.59754,-0.27527 -0.1947,-0.0604 -0.59082,-0.0604 l 0,-0.24841 z"
       style="font-style:normal;font-variant:normal;font-weight:normal;font-stretch:normal;font-size:13.75px;font-family:'Times New Roman';-inkscape-font-specification:'Times New Roman, ';text-align:center;text-anchor:middle"
       id="path4206" />
    <path
       d="m 154.64972,184.1275 q 1.39648,0 2.24243,1.06079 0.71838,0.90638 0.71838,2.0813 0,0.82581 -0.39611,1.67176 -0.39612,0.84594 -1.09436,1.27563 -0.69153,0.42969 -1.54419,0.42969 -1.38977,0 -2.20887,-1.10779 -0.69152,-0.93323 -0.69152,-2.09473 0,-0.84594 0.41626,-1.67846 0.42297,-0.83924 1.10778,-1.23536 0.68482,-0.40283 1.4502,-0.40283 z m -0.20813,0.4364 q -0.35584,0 -0.71838,0.21485 -0.35584,0.20813 -0.5774,0.73852 -0.22155,0.5304 -0.22155,1.36292 0,1.34277 0.53039,2.31628 0.53711,0.97351 1.40991,0.97351 0.65125,0 1.07422,-0.53711 0.42298,-0.53711 0.42298,-1.84631 0,-1.63818 -0.70496,-2.57812 -0.47669,-0.64454 -1.21521,-0.64454 z"
       style="font-style:normal;font-variant:normal;font-weight:normal;font-stretch:normal;font-size:13.75px;font-family:'Times New Roman';-inkscape-font-specification:'Times New Roman, ';text-align:center;text-anchor:middle"
       id="path4208" />
    <path
       d="m 160.3028,182.2879 0,2.02088 1.43676,0 0,0.46997 -1.43676,0 0,3.98803 q 0,0.59754 0.16784,0.80567 0.17456,0.20813 0.44312,0.20813 0.22155,0 0.42968,-0.13428 0.20813,-0.14099 0.32227,-0.40954 l 0.26184,0 q -0.23498,0.65795 -0.66467,0.99365 -0.42969,0.32898 -0.88623,0.32898 -0.30884,0 -0.60425,-0.16785 -0.29541,-0.17456 -0.4364,-0.49011 -0.14099,-0.32227 -0.14099,-0.98694 l 0,-4.13574 -0.97351,0 0,-0.22156 q 0.36926,-0.14771 0.75195,-0.49683 0.3894,-0.35583 0.69153,-0.83923 0.15442,-0.25513 0.42969,-0.93323 l 0.20813,0 z"
       style="font-style:normal;font-variant:normal;font-weight:normal;font-stretch:normal;font-size:13.75px;font-family:'Times New Roman';-inkscape-font-specification:'Times New Roman, ';text-align:center;text-anchor:middle"
       id="path4210" />
    <path
       d="m 163.36432,186.62506 q -0.007,1.36963 0.66467,2.14844 0.67139,0.77881 1.57776,0.77881 0.60425,0 1.04736,-0.32898 0.44983,-0.3357 0.75196,-1.14136 l 0.20813,0.13428 q -0.14099,0.9198 -0.8191,1.67846 -0.6781,0.75196 -1.6986,0.75196 -1.10779,0 -1.90003,-0.85938 -0.78552,-0.86609 -0.78552,-2.323 0,-1.57775 0.80566,-2.45727 0.81238,-0.88623 2.03431,-0.88623 1.03393,0 1.6986,0.68481 0.66468,0.6781 0.66468,1.81946 l -4.24988,0 z m 0,-0.3894 2.84668,0 q -0.0336,-0.59082 -0.14099,-0.83252 -0.16785,-0.37598 -0.50354,-0.59082 -0.32898,-0.21485 -0.69153,-0.21485 -0.55725,0 -1.00037,0.4364 -0.4364,0.42969 -0.51025,1.20179 z"
       style="font-style:normal;font-variant:normal;font-weight:normal;font-stretch:normal;font-size:13.75px;font-family:'Times New Roman';-inkscape-font-specification:'Times New Roman, ';text-align:center;text-anchor:middle"
       id="path4212" />
    <path
       d="m 179.17548,181.35468 0.1007,2.13501 -0.25512,0 q -0.0739,-0.56397 -0.20142,-0.80567 -0.20813,-0.3894 -0.55725,-0.57068 -0.34241,-0.18799 -0.90637,-0.18799 l -1.28235,0 0,6.95557 q 0,0.83923 0.18127,1.04736 0.25513,0.28199 0.78553,0.28199 l 0.31555,0 0,0.24841 -3.86048,0 0,-0.24841 0.32227,0 q 0.57739,0 0.81909,-0.34912 0.14771,-0.21485 0.14771,-0.98023 l 0,-6.95557 -1.09436,0 q -0.63782,0 -0.90638,0.094 -0.34912,0.12756 -0.59753,0.49011 -0.24841,0.36255 -0.29541,0.98023 l -0.25513,0 0.10743,-2.13501 7.43225,0 z"
       style="font-style:normal;font-variant:normal;font-weight:normal;font-stretch:normal;font-size:13.75px;font-family:'Times New Roman';-inkscape-font-specification:'Times New Roman, ';text-align:center;text-anchor:middle"
       id="path4214" />
    <path
       d="m 182.06915,184.1275 q 1.39649,0 2.24243,1.06079 0.71839,0.90638 0.71839,2.0813 0,0.82581 -0.39612,1.67176 -0.39612,0.84594 -1.09436,1.27563 -0.69153,0.42969 -1.54419,0.42969 -1.38977,0 -2.20886,-1.10779 -0.69153,-0.93323 -0.69153,-2.09473 0,-0.84594 0.41626,-1.67846 0.42297,-0.83924 1.10779,-1.23536 0.68481,-0.40283 1.45019,-0.40283 z m -0.20813,0.4364 q -0.35583,0 -0.71838,0.21485 -0.35584,0.20813 -0.57739,0.73852 -0.22156,0.5304 -0.22156,1.36292 0,1.34277 0.53039,2.31628 0.53711,0.97351 1.40992,0.97351 0.65124,0 1.07422,-0.53711 0.42297,-0.53711 0.42297,-1.84631 0,-1.63818 -0.70496,-2.57812 -0.47668,-0.64454 -1.21521,-0.64454 z"
       style="font-style:normal;font-variant:normal;font-weight:normal;font-stretch:normal;font-size:13.75px;font-family:'Times New Roman';-inkscape-font-specification:'Times New Roman, ';text-align:center;text-anchor:middle"
       id="path4216" />
    <path
       d="m 195.24847,181.14655 0,3.1488 -0.24841,0 q -0.12085,-0.90637 -0.4364,-1.44348 -0.30884,-0.53711 -0.88623,-0.85266 -0.57739,-0.31556 -1.19507,-0.31556 -0.69824,0 -1.15478,0.42969 -0.45655,0.42298 -0.45655,0.9668 0,0.41626 0.2887,0.75867 0.41626,0.50354 1.98059,1.34277 1.27563,0.68481 1.73889,1.05408 0.46997,0.36255 0.71839,0.85937 0.25512,0.49683 0.25512,1.04065 0,1.03394 -0.80566,1.78589 -0.79895,0.74524 -2.06116,0.74524 -0.39612,0 -0.74524,-0.0604 -0.20813,-0.0336 -0.86609,-0.24169 -0.65124,-0.21485 -0.8258,-0.21485 -0.16785,0 -0.26856,0.10071 -0.094,0.10071 -0.14099,0.41626 l -0.24841,0 0,-3.12195 0.24841,0 q 0.17456,0.98023 0.46997,1.47034 0.29541,0.4834 0.89966,0.80566 0.61096,0.32227 1.33606,0.32227 0.83923,0 1.32263,-0.44312 0.49011,-0.44311 0.49011,-1.04736 0,-0.33569 -0.18798,-0.6781 -0.18128,-0.34241 -0.57068,-0.63782 -0.26184,-0.20142 -1.43006,-0.85266 -1.16821,-0.65796 -1.66504,-1.04736 -0.49011,-0.38941 -0.74524,-0.85938 -0.25512,-0.46997 -0.25512,-1.03393 0,-0.98023 0.75195,-1.68518 0.75195,-0.71167 1.91345,-0.71167 0.7251,0 1.53748,0.35583 0.37598,0.16785 0.53039,0.16785 0.17456,0 0.28199,-0.10071 0.11413,-0.10742 0.18127,-0.42297 l 0.24841,0 z"
       style="font-style:normal;font-variant:normal;font-weight:normal;font-stretch:normal;font-size:13.75px;font-family:'Times New Roman';-inkscape-font-specification:'Times New Roman, ';text-align:center;text-anchor:middle"
       id="path4218" />
    <path
       d="m 198.06158,186.62506 q -0.007,1.36963 0.66468,2.14844 0.67138,0.77881 1.57776,0.77881 0.60424,0 1.04736,-0.32898 0.44983,-0.3357 0.75195,-1.14136 l 0.20813,0.13428 q -0.14099,0.9198 -0.81909,1.67846 -0.6781,0.75196 -1.69861,0.75196 -1.10779,0 -1.90002,-0.85938 -0.78552,-0.86609 -0.78552,-2.323 0,-1.57775 0.80566,-2.45727 0.81238,-0.88623 2.0343,-0.88623 1.03394,0 1.69861,0.68481 0.66467,0.6781 0.66467,1.81946 l -4.24988,0 z m 0,-0.3894 2.84668,0 q -0.0336,-0.59082 -0.14099,-0.83252 -0.16784,-0.37598 -0.50354,-0.59082 -0.32898,-0.21485 -0.69153,-0.21485 -0.55725,0 -1.00036,0.4364 -0.4364,0.42969 -0.51026,1.20179 z"
       style="font-style:normal;font-variant:normal;font-weight:normal;font-stretch:normal;font-size:13.75px;font-family:'Times New Roman';-inkscape-font-specification:'Times New Roman, ';text-align:center;text-anchor:middle"
       id="path4220" />
    <path
       d="m 205.26556,180.91156 0,8.15735 q 0,0.57739 0.0806,0.76538 0.0873,0.18799 0.26184,0.2887 0.17456,0.094 0.65125,0.094 l 0,0.2417 -3.01453,0 0,-0.2417 q 0.42297,0 0.57739,-0.0873 0.15442,-0.0873 0.2417,-0.2887 0.0873,-0.20141 0.0873,-0.77209 l 0,-5.58594 q 0,-1.04065 -0.047,-1.27563 -0.047,-0.2417 -0.15441,-0.32898 -0.10071,-0.0873 -0.26184,-0.0873 -0.17457,0 -0.44312,0.10742 l -0.11414,-0.23499 1.83289,-0.75195 0.30212,0 z"
       style="font-style:normal;font-variant:normal;font-weight:normal;font-stretch:normal;font-size:13.75px;font-family:'Times New Roman';-inkscape-font-specification:'Times New Roman, ';text-align:center;text-anchor:middle"
       id="path4222" />
    <path
       d="m 209.36774,184.79218 0,4.04174 q 0,0.85938 0.18799,1.08765 0.24841,0.29541 0.66467,0.29541 l 0.55725,0 0,0.2417 -3.67249,0 0,-0.2417 0.27527,0 q 0.26856,0 0.49011,-0.13428 0.22156,-0.13427 0.30213,-0.36255 0.0873,-0.22827 0.0873,-0.88623 l 0,-4.04174 -1.19507,0 0,-0.4834 1.19507,0 0,-0.40284 q 0,-0.91979 0.29541,-1.55761 0.29541,-0.63782 0.89966,-1.02722 0.61096,-0.39612 1.36963,-0.39612 0.70495,0 1.29577,0.45654 0.38941,0.30212 0.38941,0.6781 0,0.20142 -0.17456,0.38269 -0.17456,0.17456 -0.37598,0.17456 -0.15442,0 -0.32898,-0.10742 -0.16785,-0.11414 -0.41626,-0.47668 -0.24841,-0.36927 -0.45654,-0.49683 -0.20813,-0.12756 -0.46326,-0.12756 -0.30884,0 -0.52368,0.16784 -0.21484,0.16114 -0.30884,0.51026 -0.094,0.3424 -0.094,1.77917 l 0,0.44312 1.58447,0 0,0.4834 -1.58447,0 z"
       style="font-style:normal;font-variant:normal;font-weight:normal;font-stretch:normal;font-size:13.75px;font-family:'Times New Roman';-inkscape-font-specification:'Times New Roman, ';text-align:center;text-anchor:middle"
       id="path4224" />
  </g>
</svg>
